<svg width="1024" height="1024" xmlns="http://www.w3.org/2000/svg"><path d="M1004.641 469.143l-328.068-343.41c-22.587-23.644-59.16-23.644-80.675 0-22.587 23.645-22.587 61.927 0 84.446L827.16 452.255H57.008C25.815 452.255 0 479.277 0 511.929s25.815 59.675 57.008 59.675h769.074L595.898 813.682c-22.587 23.643-22.587 61.925 0 84.442 10.757 11.258 25.816 18.017 40.874 18.017 15.058 0 29.044-5.632 40.873-18.017l329.146-344.535c10.758-11.26 17.209-27.023 17.209-42.786-2.15-14.637-8.607-30.4-19.359-41.66z" fill="#000" fill-rule="nonzero"/></svg>