<?xml version="1.0" encoding="UTF-8"?>
<svg width="1024px" height="1024px" viewBox="0 0 1024 1024" version="1.1" xmlns="http://www.w3.org/2000/svg" xmlns:xlink="http://www.w3.org/1999/xlink">
    <!-- Generator: Sketch 50.2 (55047) - http://www.bohemiancoding.com/sketch -->
    <title>Artboard</title>
    <desc>Created with Sketch.</desc>
    <defs></defs>
    <g id="Artboard" stroke="none" stroke-width="1" fill="none" fill-rule="evenodd">
        <path d="M1004.64101,469.143256 L676.572968,125.733484 C653.985684,102.088839 617.412716,102.088839 595.897937,125.733484 C573.310653,149.378129 573.310653,187.659668 595.897937,210.178506 L827.160253,452.254801 L57.0082358,452.254801 C25.8151478,452.254801 0,479.277083 0,511.929209 C0,544.581336 25.8151478,571.603618 57.0082358,571.603618 L826.082358,571.603618 L595.897937,813.681529 C573.310653,837.32515 573.310653,875.606582 595.897937,898.123803 C606.655326,909.382413 621.713516,916.140813 636.771705,916.140813 C651.829895,916.140813 665.815579,910.508813 677.645474,898.123803 L1006.79141,553.588763 C1017.5488,542.329075 1024,526.565942 1024,510.803348 C1021.8496,496.166077 1015.39301,480.402944 1004.64101,469.143256 Z" id="Shape" fill="#000000" fill-rule="nonzero"></path>
    </g>
</svg>