<svg width="1024" height="1024" xmlns="http://www.w3.org/2000/svg"><path d=" M 0 0 L 1024 0 L 1024 1024 L 0 1024 L 0 0 Z  M 639.898 509.926 C 640.717 499.098 637.082 487.962 628.941 479.693 L 468.531 316.467 C 461.502 309.259 451.86 305.195 441.792 305.195 C 431.724 305.195 422.082 309.259 415.053 316.467 C 400.269 331.597 400.269 355.763 415.053 370.893 L 551.706 509.9 L 415.053 648.96 C 400.285 664.087 400.285 688.233 415.053 703.36 C 422.082 710.568 431.724 714.632 441.792 714.632 C 451.86 714.632 461.502 710.568 468.531 703.36 L 628.941 540.134 C 636.789 532.122 640.785 521.106 639.898 509.926 L 639.898 509.926 Z " fill-rule="evenodd" fill="#000"/></svg>