<svg width="1024" height="1024" xmlns="http://www.w3.org/2000/svg"><path d="M969.144 219.429H731.43c-22.287 0-50.863 9.714-73.144 22.857V54.857C658.287 24.571 633.711 0 603.431 0H365.714C335.43 0 293.143 17.714 272 38.857L38.857 272C17.714 293.143 0 335.43 0 365.714v384c0 30.287 24.571 54.857 54.857 54.857h310.857v164.575c0 30.28 24.572 54.856 54.857 54.856h548.573c30.286 0 54.856-24.576 54.856-54.856v-694.86c0-30.286-24.57-54.857-54.856-54.857zM658.287 341.143V512H487.43l170.858-170.857zM292.571 121.714v170.857H121.714l170.857-170.857zm112 369.714c-21.143 21.144-38.857 63.43-38.857 93.718v146.28H73.144V365.715h237.713c30.286 0 54.857-24.57 54.857-54.857V73.143h219.43v237.714L404.571 491.428zm546.285 459.43h-512V585.146H676.57c30.286 0 54.862-24.575 54.862-54.86V292.57h219.425v658.287z" fill="#000" fill-rule="nonzero"/></svg>