<?xml version="1.0" encoding="UTF-8" standalone="no"?>
<!DOCTYPE svg PUBLIC "-//W3C//DTD SVG 1.1//EN" "http://www.w3.org/Graphics/SVG/1.1/DTD/svg11.dtd">
<svg width="1024px" height="1024px" viewBox="0 0 1024 1024" version="1.1" xmlns="http://www.w3.org/2000/svg" xmlns:xlink="http://www.w3.org/1999/xlink" xml:space="preserve" xmlns:serif="http://www.serif.com/">
    <path d="M844.11,965.486C835.116,965.486 827.407,961.82 820.982,956.931L635.951,779.691L107.935,779.691C48.828,779.691 0,733.243 0,677.016L0,161.19C0,104.963 48.828,58.514 107.935,58.514L916.065,58.514C975.173,58.514 1024,104.963 1024,161.19L1024,677.016C1024,733.243 975.173,779.691 916.065,779.691L876.234,779.691L876.234,934.927C876.234,943.484 872.378,950.819 867.237,956.931C860.815,961.82 853.103,965.486 844.11,965.486ZM107.935,119.631C84.806,119.631 64.247,137.966 64.247,161.19L64.247,677.016C64.247,700.24 84.806,718.573 107.935,718.573L648.798,718.573C657.794,718.573 665.503,722.242 671.928,727.131L811.985,861.588L811.985,749.132C811.985,732.02 826.119,718.573 844.11,718.573L916.065,718.573C940.48,718.573 959.754,700.24 959.754,677.016L959.754,161.19C959.754,137.966 940.48,119.631 916.065,119.631L107.935,119.631ZM676.168,601.231C635.05,592.674 597.788,571.895 569.52,541.336C542.536,508.334 528.402,466.774 529.686,425.215L529.686,254.088L690.302,254.088L690.302,421.549L631.197,421.549L631.197,426.437C631.197,437.438 631.197,447.216 633.765,458.217C635.05,465.551 637.621,474.109 641.475,480.218C645.331,486.33 649.184,491.222 655.609,496.11C663.318,500.999 672.315,505.888 682.593,508.334L691.586,510.777L691.586,604.897L676.168,601.231ZM474.434,601.231C433.316,592.674 396.051,571.895 367.783,541.336C340.799,508.334 326.665,467.997 327.949,426.437L327.949,255.31L488.568,255.31L488.568,422.769L429.46,422.769L429.46,427.66C429.46,438.661 429.46,448.439 432.029,459.44C433.316,466.774 435.885,475.329 439.741,481.441C443.594,487.553 448.734,492.442 453.875,496.11C461.584,502.222 470.578,505.888 480.859,508.334L489.852,510.777L489.852,604.897L474.434,601.231Z" style="fill:rgb(30,154,147);"/>
</svg>
