<?xml version="1.0" encoding="UTF-8" standalone="no"?>
<!DOCTYPE svg PUBLIC "-//W3C//DTD SVG 1.1//EN" "http://www.w3.org/Graphics/SVG/1.1/DTD/svg11.dtd">
<svg width="1024px" height="1024px" viewBox="0 0 1024 1024" version="1.1" xmlns="http://www.w3.org/2000/svg" xmlns:xlink="http://www.w3.org/1999/xlink" xml:space="preserve">
    <path d="M512.404,0C305.286,-0.16 118.473,124.481 39.102,315.787C-40.27,507.093 3.436,727.375 149.834,873.886C296.232,1020.4 516.48,1064.27 707.847,985.05C899.214,905.826 1024,719.11 1024,511.993C1024.11,376.24 970.251,246.012 874.297,149.983C778.343,53.955 648.156,0 512.404,0ZM512.404,946.314C271.659,946.314 76.497,751.152 76.497,510.408C76.497,269.663 271.659,74.501 512.404,74.501C753.148,74.501 948.311,269.663 948.311,510.408C948.311,626.017 902.385,736.892 820.636,818.64C738.888,900.389 628.013,946.314 512.404,946.314Z" style="fill:rgb(30,154,147);"/>
    <path d="M512.404,413.319C500.006,413.105 488.048,417.908 479.243,426.638C470.439,435.368 465.534,447.285 465.643,459.684L465.643,697.451C467.864,721.508 488.046,739.912 512.206,739.912C536.365,739.912 556.547,721.508 558.768,697.451L558.768,459.684C558.875,447.355 554.025,435.5 545.306,426.781C536.588,418.063 524.733,413.212 512.404,413.319Z" style="fill:rgb(30,154,147);"/>
    <path d="M512.404,282.943C500.038,282.838 488.143,287.676 479.362,296.382C470.581,305.089 465.642,316.942 465.643,329.308C465.482,348.256 476.773,365.428 494.233,372.791C511.693,380.154 531.87,376.251 545.326,362.91C558.782,349.568 562.856,329.424 555.642,311.902C548.428,294.38 531.353,282.944 512.404,282.943Z" style="fill:rgb(30,154,147);"/>
</svg>
