<?xml version="1.0" encoding="UTF-8"?>
<svg width="1024px" height="1024px" viewBox="0 0 1024 1024" version="1.1" xmlns="http://www.w3.org/2000/svg" xmlns:xlink="http://www.w3.org/1999/xlink">
    <!-- Generator: Sketch 50.2 (55047) - http://www.bohemiancoding.com/sketch -->
    <title>Artboard</title>
    <desc>Created with Sketch.</desc>
    <defs></defs>
    <g id="Artboard" stroke="none" stroke-width="1" fill="none" fill-rule="evenodd">
        <path d="M1007.8336,932.3776 C1029.3888,953.937067 1029.3888,986.274133 1007.8336,1007.8336 C986.274133,1029.3888 953.937067,1029.3888 932.3776,1007.8336 L668.296533,743.748267 C657.514667,732.9664 638.651733,732.9664 627.874133,741.051733 C627.874133,741.051733 619.7888,746.440533 603.6224,754.525867 C544.337067,789.559467 476.9664,808.4224 404.210347,808.4224 C180.547413,808.4224 0,627.874133 0,404.210347 C0,180.547413 180.547413,0 404.210347,0 C627.874133,0 808.4224,180.547413 808.4224,404.210347 C808.4224,476.9664 789.559467,547.0336 754.525867,606.314667 C746.440533,622.485333 741.051733,627.874133 741.051733,627.874133 C732.9664,641.348267 732.9664,657.514667 743.748267,668.296533 L1007.8336,932.3776 Z M404.210347,700.6336 C568.5888,700.6336 700.6336,568.5888 700.6336,404.210347 C700.6336,239.831467 568.5888,107.789653 404.210347,107.789653 C239.831467,107.789653 107.789653,239.831467 107.789653,404.210347 C107.789653,568.5888 239.831467,700.6336 404.210347,700.6336 Z" id="Shape" fill="#000000" fill-rule="nonzero"></path>
    </g>
</svg>