<svg width="1024" height="1024" xmlns="http://www.w3.org/2000/svg"><path d="M641.087 696.09c-75.422 57.53-162.446 86.292-249.472 86.292-104.431 0-203.06-40.27-278.482-115.058-150.844-149.57-150.844-402.695 0-552.268C188.555 40.27 287.184 0 391.615 0c104.43 0 203.057 40.27 278.483 115.056 139.24 138.068 150.843 362.426 29.006 517.751l-5.8 5.754L1024 966.474l-58.017 57.525-324.896-327.908zM391.615 86.293c-87.026 0-162.448 34.517-220.465 92.045-121.836 120.81-121.836 316.404 0 437.212 58.017 57.53 139.24 92.046 220.465 92.046s162.448-34.517 220.465-92.046c121.837-120.808 121.837-316.403 0-437.212-63.819-57.528-139.24-92.045-220.465-92.045z" fill="#000" fill-rule="nonzero"/></svg>