<?xml version="1.0" encoding="UTF-8" standalone="no"?>
<!DOCTYPE svg PUBLIC "-//W3C//DTD SVG 1.1//EN" "http://www.w3.org/Graphics/SVG/1.1/DTD/svg11.dtd">
<svg width="1024px" height="1024px" viewBox="0 0 1024 1024" version="1.1" xmlns="http://www.w3.org/2000/svg" xmlns:xlink="http://www.w3.org/1999/xlink" xml:space="preserve">
    <path d="M512.404,0C305.286,-0.16 118.473,124.481 39.102,315.787C-40.27,507.093 3.436,727.375 149.834,873.886C296.232,1020.4 516.48,1064.27 707.847,985.05C899.214,905.826 1024,719.11 1024,511.993C1024.11,376.24 970.251,246.012 874.297,149.983C778.343,53.955 648.156,0 512.404,0ZM512.404,946.314C271.659,946.314 76.497,751.152 76.497,510.408C76.497,269.663 271.659,74.501 512.404,74.501C753.148,74.501 948.311,269.663 948.311,510.408C948.311,626.017 902.385,736.892 820.636,818.64C738.888,900.389 628.013,946.314 512.404,946.314Z" style="fill:rgb(30,154,147);"/>
    <path d="M748.586,419.263L480.305,696.659C473.276,704.023 463.539,708.19 453.358,708.19C443.177,708.19 433.44,704.023 426.411,696.659L292.469,557.961C284.967,550.52 280.747,540.391 280.747,529.825C280.747,519.259 284.967,509.13 292.469,501.689C299.498,494.325 309.235,490.158 319.416,490.158C329.597,490.158 339.334,494.325 346.363,501.689L454.151,614.233L695.485,362.992C702.514,355.627 712.251,351.46 722.432,351.46C732.612,351.46 742.349,355.627 749.379,362.992C756.777,370.538 760.855,380.726 760.706,391.293C760.557,401.859 756.194,411.929 748.586,419.263Z" style="fill:rgb(30,154,147);"/>
</svg>
