<svg width="1024" height="1024" xmlns="http://www.w3.org/2000/svg"><path d="M205.57 640.02H32.12C13.92 640.02 0 625.195 0 605.805V57.215C0 37.828 13.919 23 32.12 23h173.45c18.202 0 32.121 14.827 32.121 34.216v548.589c0 19.39-13.919 34.215-32.12 34.215zM118.847 82.308c-29.98 0-53.534 26.23-53.534 57.025 0 31.935 24.625 57.025 53.534 57.025 28.908 0 53.534-26.23 53.534-57.025 0-30.794-23.555-57.025-53.534-57.025zm904.725 484.72c6.423 76.416-61.03 99.225-87.796 99.225H625.277c14.99 34.216 33.192 125.457 10.708 252.055-9.637 50.183-36.403 83.258-71.736 82.117-27.839 0-55.675-23.95-57.816-52.464-3.214-31.934-10.708-77.555-17.131-108.349-22.486-99.226-141.33-230.384-216.278-276.005V78.885c51.393-30.795 105.998-41.058 165.955-39.918 93.15 2.281 360.82 0 409 1.14 34.262 0 68.524 17.109 84.584 61.59 22.484 60.446-35.332 90.1-35.332 90.1s63.169-3.421 78.159 57.025c14.99 61.589-43.897 86.68-43.897 86.68 39.615 4.563 64.24 15.967 73.877 53.606 10.705 44.479-16.06 77.554-57.817 96.942 5.353-1.14 69.593 10.266 76.018 80.978z" fill="#000" fill-rule="nonzero"/></svg>