<?xml version="1.0" encoding="UTF-8"?>
<svg width="1024px" height="1024px" viewBox="0 0 1024 1024" version="1.1" xmlns="http://www.w3.org/2000/svg" xmlns:xlink="http://www.w3.org/1999/xlink">
    <!-- Generator: Sketch 50.2 (55047) - http://www.bohemiancoding.com/sketch -->
    <title>Artboard</title>
    <desc>Created with Sketch.</desc>
    <defs></defs>
    <g id="Artboard" stroke="none" stroke-width="1" fill="none" fill-rule="evenodd">
        <path d="M205.57068,640.020171 L32.1203024,640.020171 C13.918852,640.020171 -2.37469127e-15,625.195452 0,605.804626 L6.71827862e-14,57.2155449 C6.95571925e-14,37.8270464 13.918852,23 32.1203024,23 L205.57068,23 C223.77227,23 237.691215,37.8270464 237.691215,57.2155449 L237.691215,605.804626 C237.691215,625.195452 223.77227,640.020171 205.57068,640.020171 Z M118.845608,82.3081857 C88.8663949,82.3081857 65.3116151,108.538862 65.3116151,139.333318 C65.3116151,171.268137 89.9371725,196.35845 118.845608,196.35845 C147.75381,196.35845 172.3796,170.127774 172.3796,139.333318 C172.3796,108.538862 148.824588,82.3081857 118.845608,82.3081857 Z M1023.57122,567.027629 C1029.99449,643.443587 962.540854,666.253175 935.774905,666.253175 L625.27733,666.253175 C640.267285,700.46872 658.468875,791.710328 635.985106,918.308076 C626.347875,968.490798 599.581926,1001.56594 564.249291,1000.42542 C536.41047,1000.42542 508.573976,976.474503 506.432886,947.961471 C503.218924,916.026885 495.72511,870.406081 489.301841,839.612091 C466.815744,740.386079 347.9713,609.228042 273.02385,563.60654 L273.02385,78.8847694 C324.416986,48.0903135 379.021756,37.8270464 438.97925,38.9674094 C532.12829,41.2481355 799.799416,38.9674094 847.97859,40.1077724 C882.24068,40.1077724 916.50277,57.2155449 932.563271,101.696684 C955.04704,162.142906 897.230635,191.796998 897.230635,191.796998 C897.230635,191.796998 960.399764,188.375909 975.38972,248.822131 C990.379675,310.411042 931.492726,335.501356 931.492726,335.501356 C971.10754,340.065135 995.7324,351.468765 1005.36963,389.107727 C1016.07508,433.586539 989.30913,466.66172 947.553226,486.050219 C952.90595,484.909856 1017.14562,496.315813 1023.57122,567.027629 Z" id="Shape" fill="#000000" fill-rule="nonzero"></path>
    </g>
</svg>