<?xml version="1.0" encoding="UTF-8" standalone="no"?>
<!DOCTYPE svg PUBLIC "-//W3C//DTD SVG 1.1//EN" "http://www.w3.org/Graphics/SVG/1.1/DTD/svg11.dtd">
<svg width="1024px" height="1024px" viewBox="0 0 1024 1024" version="1.1" xmlns="http://www.w3.org/2000/svg" xmlns:xlink="http://www.w3.org/1999/xlink" xml:space="preserve">
    <path d="M92.918,965.881L930.412,965.881C946.823,967.146 963.264,963.834 977.904,956.311C999.767,944.629 1015.62,924.192 1021.51,900.113C1027.39,876.033 1022.75,850.587 1008.74,830.138L589.814,104.641C574.596,75.712 544.529,57.672 511.842,57.857C479.158,58.011 449.147,75.937 433.515,104.641L14.591,830.492C5.73,844.02 0.707,859.7 0.06,875.858C-0.522,892.112 3.143,908.236 10.693,922.642C19.462,936.505 31.673,947.86 46.135,955.603C60.59,962.984 76.7,966.524 92.918,965.881ZM79.096,867.352L496.248,141.855C501.21,133.349 506.88,129.45 510.424,129.45C513.969,129.45 519.285,133.349 524.601,141.855L944.589,867.352C946.388,869.931 947.708,872.812 948.487,875.858C949.19,879.009 949.19,882.276 948.487,885.428C946.18,887.76 943.4,889.572 940.336,890.744C937.085,891.616 933.662,891.616 930.412,890.744L92.918,890.744C82.994,890.744 76.969,887.908 75.197,884.719C73.425,881.529 74.134,875.858 79.096,867.352Z" style="fill:rgb(30,154,147);"/>
    <path d="M511.133,464.377C524.196,464.738 536.894,460.04 546.575,451.263C551.676,446.66 555.674,440.966 558.271,434.606C561.013,428.365 562.228,421.562 561.815,414.758C561.909,408.207 560.704,401.702 558.271,395.619C555.571,389.612 551.717,384.193 546.93,379.67C537.479,370.408 524.719,365.304 511.488,365.494C498.27,365.382 485.54,370.474 476.046,379.67C461.95,394.399 457.665,415.961 465.059,434.96C467.791,441.337 471.907,447.027 477.109,451.618C486.466,459.96 498.599,464.509 511.133,464.377Z" style="fill:rgb(30,154,147);"/>
    <path d="M510.779,514.35L511.133,514.35C538.519,514.35 560.752,536.583 560.752,563.969L560.752,746.495C560.752,773.88 538.519,796.114 511.133,796.114L510.779,796.114C483.394,796.114 461.16,773.88 461.16,746.495L461.16,563.969C461.16,536.583 483.394,514.35 510.779,514.35Z" style="fill:rgb(30,154,147);"/>
</svg>
